<svg viewBox="0 0 680.7991 296.2811" fill="none" xmlns="http://www.w3.org/2000/svg" xmlns:xlink="http://www.w3.org/1999/xlink" id="c9aa21db" x="0" y="0"><g id="Events" data-node-id="1026:304"><path id="Vector 62" data-node-id="1027:629" d="M5.6632,0.2865c0,0 -5.379,93.73 14.5,148.5c20.03,55.19 34.679,93.76 85,124c54.542,32.78 162.5,12 162.5,12l146.5,-57c0,0 118.813,-39.45 197,-36.5" stroke="#BE266E" stroke-width="10" stroke-dasharray="20 20"/><g id="Vector_45" data-node-id="1027:630">
<mask id="path-174-inside-1_1026_304" fill="white">
<path d="M412.5432,199.4765l10.998,-3.71l47.745,8.39l2.473,7.34l-32.908,35.59l-10.998,3.71l-3.752,-23.23l18.33,-6.18l-2.473,-7.33l-18.33,6.18z"/>
</mask>
<path d="M412.5432,199.4765l10.998,-3.71l47.745,8.39l2.473,7.34l-32.908,35.59l-10.998,3.71l-3.752,-23.23l18.33,-6.18l-2.473,-7.33l-18.33,6.18z" fill="#5075F6"/>
<path d="M412.5432,199.4765l-9.588,-28.43l-33.556,11.32l16.68,31.24zM423.5412,195.7665l5.195,-29.55l-7.534,-1.32l-7.249,2.44zM471.2862,204.1565l28.426,-9.58l-5.691,-16.88l-17.54,-3.08zM473.7592,211.4965l22.029,20.36l12.089,-13.08l-5.692,-16.87zM440.8512,247.0865l9.588,28.43l7.248,-2.44l5.193,-5.62zM429.8532,250.7965l-29.616,4.79l5.647,34.96l33.557,-11.32zM426.1012,227.5665l-9.588,-28.43l-24.081,8.13l4.052,25.08zM444.4312,221.3865l9.587,28.42l28.427,-9.58l-9.588,-28.43zM441.9582,214.0565l28.426,-9.59l-9.587,-28.43l-28.427,9.59zM423.6282,220.2365l-26.464,14.13l11.97,22.42l24.081,-8.13zM412.5432,199.4765l9.588,28.43l10.998,-3.71l-9.588,-28.43l-9.588,-28.43l-10.998,3.71zM423.5412,195.7665l-5.195,29.55l47.744,8.39l5.196,-29.55l5.195,-29.54l-47.745,-8.4zM471.2862,204.1565l-28.427,9.59l2.473,7.33l28.427,-9.58l28.426,-9.59l-2.473,-7.33zM473.7592,211.4965l-22.03,-20.37l-32.907,35.6l22.029,20.36l22.029,20.37l32.908,-35.6zM440.8512,247.0865l-9.587,-28.42l-10.998,3.71l9.587,28.42l9.588,28.43l10.998,-3.71zM429.8532,250.7965l29.616,-4.78l-3.752,-23.23l-29.616,4.78l-29.617,4.78l3.753,23.24zM426.1012,227.5665l9.587,28.43l18.33,-6.19l-9.587,-28.42l-9.588,-28.43l-18.33,6.18zM444.4312,221.3865l28.426,-9.59l-2.473,-7.33l-28.426,9.59l-28.427,9.58l2.473,7.34zM441.9582,214.0565l-9.588,-28.43l-18.33,6.18l9.588,28.43l9.587,28.42l18.33,-6.18zM423.6282,220.2365l26.463,-14.13l-11.084,-20.76l-26.464,14.13l-26.464,14.13l11.085,20.76z" fill="#BE266E" mask="url(#path-174-inside-1_1026_304)"/>
</g><g id="origami-airplane 1" data-node-id="1027:631">
<g clip-path="url(#clip0_1026_304)">
<g id="Group" data-node-id="1027:632">
<g id="Group_2" data-node-id="1027:633">
<path id="Vector_46" data-node-id="1027:634" d="M553.9522,80.0665l37.351,-4.78c0.519,-0.1 0.893,-0.17 1.13,-0.22c0.314,-0.07 0.398,-0.08 0.536,-0.08c0.067,0 0.128,0.02 0.191,0.03c0.139,-0.02 0.27,-0.03 0.396,-0.03c0.639,0 1.157,0.29 1.422,0.8c0.485,0.94 -0.157,2.04 -0.66,2.74l-8.81,13.35c-1.085,1.53 -3.085,2.51 -5.096,2.51c-0.67,0 -1.311,-0.1 -1.903,-0.32l-2.856,-1.03l-6.18,4.81c-0.205,0.16 -0.449,0.24 -0.69,0.24c-0.026,0 -0.05,0 -0.076,-0.01c-0.053,0.01 -0.107,0.01 -0.159,0.01c-0.863,0 -1.592,-0.68 -2.161,-2.02l-4.135,-9.13c-0.346,0.03 -0.7,0.05 -1.066,0.05c-1.596,0 -3.169,-0.31 -4.315,-0.85l-3.548,-1.66c-1.776,-0.83 -2.046,-1.81 -1.959,-2.49c0.088,-0.67 0.597,-1.55 2.588,-1.92zM579.2722,91.9565c0.348,0.12 0.731,0.18 1.14,0.18c1.286,0 2.597,-0.63 3.24,-1.53l8.37,-12.68l-19.777,10.6c-0.435,0.22 -0.615,0.41 -0.684,0.5c0.078,0.08 0.281,0.24 0.739,0.41zM571.5372,91.5565c-0.123,-0.05 -0.223,-0.1 -0.333,-0.15l-0.394,2.55l2.341,-1.82zM568.3722,94.9965l0.909,-5.88c-0.021,-0.62 0.216,-1.72 1.924,-2.58l10.211,-5.48l-16.766,5.36c-0.044,0.01 -0.096,0.03 -0.141,0.04zM554.2792,82.4365l3.547,1.66c1.536,0.72 4.356,0.86 6.078,0.2l16.886,-5.4l-26.492,3.4c-0.079,0.01 -0.152,0.03 -0.219,0.04c0.06,0.03 0.127,0.07 0.2,0.1z" fill="#BE266E"/>
</g>
</g>
</g>
</g><g id="origami-airplane 3" data-node-id="1027:635">
<g clip-path="url(#clip1_1026_304)">
<g id="Group_3" data-node-id="1027:636">
<g id="Group_4" data-node-id="1027:637">
<path id="Vector_47" data-node-id="1027:638" d="M615.1162,41.7065l59.097,-7.57c0.821,-0.15 1.413,-0.27 1.788,-0.35c0.496,-0.1 0.629,-0.13 0.847,-0.13c0.106,0 0.202,0.04 0.303,0.06c0.219,-0.04 0.427,-0.06 0.625,-0.06c1.011,0 1.831,0.47 2.25,1.28c0.768,1.49 -0.248,3.21 -1.044,4.33l-13.939,21.12c-1.716,2.42 -4.88,3.98 -8.062,3.98c-1.061,0 -2.075,-0.17 -3.012,-0.51l-4.518,-1.63l-9.777,7.61c-0.326,0.26 -0.711,0.38 -1.093,0.38c-0.041,0 -0.079,-0.01 -0.12,-0.01c-0.084,0 -0.17,0.01 -0.252,0.01c-1.364,0 -2.518,-1.08 -3.419,-3.19l-6.542,-14.46c-0.548,0.05 -1.108,0.08 -1.687,0.08c-2.525,0 -5.014,-0.49 -6.827,-1.34l-5.613,-2.63c-2.811,-1.32 -3.238,-2.87 -3.099,-3.93c0.138,-1.07 0.943,-2.46 4.094,-3.04zM655.1772,60.5065c0.55,0.2 1.156,0.3 1.804,0.3c2.034,0 4.108,-1 5.126,-2.43l13.244,-20.07l-31.293,16.79c-0.688,0.34 -0.973,0.64 -1.082,0.78c0.125,0.13 0.445,0.39 1.17,0.65zM642.9392,59.8765c-0.195,-0.07 -0.353,-0.15 -0.528,-0.23l-0.623,4.03l3.704,-2.88zM637.9322,65.3265l1.438,-9.31c-0.035,-0.97 0.34,-2.71 3.044,-4.08l16.155,-8.67l-26.527,8.48c-0.07,0.02 -0.152,0.04 -0.223,0.07zM615.6332,45.4565l5.613,2.63c2.43,1.14 6.891,1.34 9.615,0.3l26.718,-8.53l-41.915,5.37c-0.126,0.02 -0.241,0.04 -0.347,0.07c0.095,0.05 0.201,0.1 0.316,0.16z" fill="#BE266E"/>
</g>
</g>
</g>
</g><g id="origami-airplane 2" data-node-id="1027:639">
<g clip-path="url(#clip2_1026_304)">
<g id="Group_5" data-node-id="1027:640">
<g id="Group_6" data-node-id="1027:641">
<path id="Vector_48" data-node-id="1027:642" d="M612.9012,117.5365l27.289,-4.11c0.379,-0.08 0.652,-0.15 0.825,-0.19c0.229,-0.05 0.291,-0.07 0.392,-0.07c0.048,0 0.093,0.02 0.139,0.03c0.102,-0.02 0.198,-0.03 0.289,-0.03c0.467,0 0.846,0.25 1.039,0.7c0.355,0.8 -0.114,1.74 -0.482,2.35l-6.436,11.46c-0.793,1.31 -2.254,2.15 -3.723,2.15c-0.49,0 -0.959,-0.09 -1.391,-0.27l-2.087,-0.89l-4.514,4.13c-0.15,0.14 -0.328,0.21 -0.505,0.21c-0.018,0 -0.036,-0.01 -0.055,-0.01c-0.039,0 -0.078,0.01 -0.116,0.01c-0.63,0 -1.163,-0.59 -1.579,-1.74l-3.021,-7.84c-0.253,0.03 -0.512,0.04 -0.779,0.04c-1.166,0 -2.315,-0.26 -3.152,-0.72l-2.592,-1.43c-1.298,-0.71 -1.496,-1.55 -1.431,-2.13c0.064,-0.58 0.435,-1.34 1.89,-1.65zM631.4002,127.7365c0.254,0.11 0.534,0.16 0.833,0.16c0.939,0 1.897,-0.54 2.367,-1.32l6.115,-10.88l-14.449,9.1c-0.318,0.19 -0.45,0.35 -0.5,0.43c0.057,0.07 0.205,0.21 0.54,0.35zM625.7492,127.3965c-0.091,-0.04 -0.163,-0.08 -0.244,-0.13l-0.288,2.19l1.71,-1.56zM623.4362,130.3465l0.665,-5.05c-0.016,-0.52 0.157,-1.47 1.405,-2.21l7.46,-4.7l-12.249,4.6c-0.032,0.01 -0.07,0.02 -0.103,0.03zM613.1402,119.5665l2.592,1.43c1.122,0.62 3.182,0.73 4.44,0.16l12.337,-4.63l-19.355,2.92c-0.058,0.01 -0.111,0.02 -0.16,0.04c0.044,0.02 0.093,0.05 0.146,0.08z" fill="#BE266E"/>
</g>
</g>
</g>
</g></g><defs><mask id="path-174-inside-1_1026_304" fill="white">
<path d="M632.543 1791.19L643.541 1787.48L691.286 1795.87L693.759 1803.21L660.851 1838.8L649.853 1842.51L646.101 1819.28L664.431 1813.1L661.958 1805.77L643.628 1811.95L632.543 1791.19Z"/>
</mask><clipPath id="clip0_1026_304">
<rect width="43.8" height="43.8" transform="matrix(-1, 0, 0, 1, 595.1502, 64.63649999999984)" fill="white"/>
</clipPath><clipPath id="clip1_1026_304">
<rect width="69.3" height="69.3" transform="matrix(-1, 0, 0, 1, 680.3001999999999, 17.286499999999933)" fill="white"/>
</clipPath><clipPath id="clip2_1026_304">
<rect width="32" height="37.6" transform="matrix(-1, 0, 0, 1, 643.0002, 104.28649999999993)" fill="white"/>
</clipPath></defs></svg>